<svg width="713" height="141" viewBox="0 0 713 141" fill="none" xmlns="http://www.w3.org/2000/svg">
<g clip-path="url(#clip0_2003_508)">
<mask id="mask0_2003_508" style="mask-type:luminance" maskUnits="userSpaceOnUse" x="0" y="0" width="713" height="141">
<path d="M712.04 0H0V140.46H712.04V0Z" fill="white"/>
</mask>
<g mask="url(#mask0_2003_508)">
<path fill-rule="evenodd" clip-rule="evenodd" d="M214.78 49.1L177.7 92.17H215.58V98.15H163.74V91.37L200.82 48.3H164.53V42.32H214.77V49.1H214.78ZM239.9 48.3V66.64H269.01V72.62H239.9V92.16H276.98V98.14H228.33V42.31H276.98V48.29H239.9V48.3ZM318.06 42.32C322.05 42.32 325.62 42.76 328.79 43.64C331.95 44.52 334.63 45.79 336.8 47.47C338.98 49.14 340.65 51.19 341.82 53.61C342.99 56.03 343.57 58.78 343.57 61.86C343.57 66.11 342.51 69.7 340.38 72.63C338.25 75.55 335.2 77.79 331.21 79.33L344.37 98.15H331.21L319.49 81.4H300.91V98.15H289.35V42.32H318.06ZM300.91 48.3V75.42H318.06C322.26 75.42 325.5 74.32 327.79 72.11C330.08 69.9 331.22 66.49 331.22 61.86C331.22 57.23 330.08 53.82 327.79 51.61C325.5 49.4 322.26 48.3 318.06 48.3H300.91ZM387.85 46.31C385.14 46.31 382.6 46.79 380.23 47.75C377.86 48.71 375.8 50.17 374.05 52.14C372.3 54.11 370.9 56.59 369.86 59.6C368.82 62.6 368.31 66.15 368.31 70.25C368.31 74.35 368.83 77.89 369.86 80.9C370.9 83.9 372.29 86.39 374.05 88.36C375.8 90.33 377.87 91.79 380.23 92.75C382.6 93.71 385.13 94.19 387.85 94.19C390.57 94.19 393.1 93.71 395.47 92.75C397.84 91.79 399.9 90.33 401.65 88.36C403.4 86.39 404.8 83.91 405.84 80.9C406.88 77.9 407.39 74.35 407.39 70.25C407.39 66.15 406.87 62.61 405.84 59.6C404.8 56.6 403.41 54.11 401.65 52.14C399.9 50.17 397.83 48.71 395.47 47.75C393.11 46.79 390.57 46.31 387.85 46.31ZM387.85 40.72C392.63 40.72 396.98 41.36 400.89 42.63C404.8 43.91 408.15 45.79 410.94 48.29C413.73 50.79 415.9 53.87 417.44 57.54C418.98 61.21 419.75 65.43 419.75 70.22C419.75 75.01 418.98 79.23 417.44 82.9C415.9 86.57 413.73 89.65 410.94 92.15C408.15 94.65 404.8 96.54 400.89 97.81C396.98 99.09 392.64 99.72 387.85 99.72C383.06 99.72 378.71 99.08 374.77 97.81C370.84 96.53 367.47 94.65 364.68 92.15C361.89 89.65 359.74 86.57 358.22 82.9C356.7 79.23 355.95 75 355.95 70.22C355.95 65.44 356.71 61.21 358.22 57.54C359.74 53.87 361.89 50.79 364.68 48.29C367.47 45.79 370.83 43.9 374.77 42.63C378.7 41.35 383.06 40.72 387.85 40.72ZM460.02 42.32C464.8 42.32 469.15 42.92 473.06 44.11C476.97 45.31 480.32 47.07 483.11 49.41C485.9 51.75 488.07 54.66 489.61 58.14C491.15 61.62 491.92 65.65 491.92 70.22C491.92 74.79 491.15 78.82 489.61 82.3C488.07 85.78 485.9 88.69 483.11 91.03C480.32 93.37 476.97 95.14 473.06 96.33C469.15 97.53 464.81 98.12 460.02 98.12H433.7V42.29H460.02V42.32ZM445.27 48.3V92.16H460.02C462.73 92.16 465.27 91.75 467.64 90.92C470.01 90.1 472.07 88.79 473.82 87.01C475.57 85.23 476.97 82.96 478.01 80.19C479.05 77.43 479.56 74.1 479.56 70.22C479.56 66.34 479.04 63.02 478.01 60.25C476.97 57.49 475.58 55.21 473.82 53.43C472.07 51.65 470 50.35 467.64 49.52C465.27 48.7 462.74 48.28 460.02 48.28H445.27V48.3ZM533.79 42.32C537.78 42.32 541.35 42.76 544.52 43.64C547.68 44.52 550.36 45.79 552.54 47.47C554.72 49.14 556.39 51.19 557.56 53.61C558.73 56.03 559.31 58.78 559.31 61.86C559.31 66.11 558.25 69.7 556.12 72.63C553.99 75.55 550.94 77.79 546.95 79.33L560.11 98.15H546.95L535.23 81.4H516.65V98.15H505.09V42.32H533.8H533.79ZM516.65 48.3V75.42H533.8C538 75.42 541.24 74.32 543.53 72.11C545.82 69.9 546.96 66.49 546.96 61.86C546.96 57.23 545.82 53.82 543.53 51.61C541.24 49.4 538 48.3 533.8 48.3H516.65ZM584.84 98.14H573.28V42.31H584.84V98.14ZM611.95 48.3V67.44H641.06V73.42H611.95V98.14H600.39V42.31H650.63V48.29H611.95V48.3ZM712.04 48.3H690.51V98.14H678.95V48.3H657.42V42.32H712.05V48.3H712.04Z" fill="black"/>
<path fill-rule="evenodd" clip-rule="evenodd" d="M52.97 139.48C56.34 140.04 59.81 140.37 63.34 140.46C63.63 140.46 63.89 140.38 64.1 140.21C64.31 140.04 64.42 139.82 64.42 139.57V114.94C64.42 114.69 64.27 114.48 64.02 114.35C62.15 113.45 60.39 112.56 58.75 111.66C58.52 111.54 58.26 111.52 58.01 111.61C57.76 111.7 57.6 111.88 57.56 112.11L52.14 138.45C52.04 138.93 52.41 139.39 52.97 139.48ZM63.35 0C59.82 0.09 56.35 0.42 52.98 0.98C52.42 1.07 52.05 1.53 52.15 2.01L57.96 30.25C58 30.46 58.15 30.63 58.37 30.73C58.59 30.83 58.84 30.83 59.06 30.74L63.98 28.74C64.26 28.63 64.43 28.4 64.43 28.13V0.9C64.43 0.65 64.32 0.43 64.11 0.26C63.9 0.08 63.64 0 63.35 0.01V0ZM49.17 1.71C49.46 1.65 49.74 1.68 50 1.82C50.25 1.96 50.41 2.16 50.46 2.42L56.39 31.27C56.45 31.57 56.28 31.86 55.95 31.99L51.62 33.75C51.41 33.83 51.2 33.84 50.99 33.76C50.78 33.69 50.63 33.55 50.55 33.37L38.81 5.71C38.62 5.26 38.87 4.77 39.37 4.58C42.51 3.41 45.78 2.44 49.16 1.7L49.17 1.71ZM35.86 6.02C32.83 7.34 29.93 8.86 27.19 10.56C26.75 10.83 26.63 11.33 26.9 11.73L43.5 36.37C43.7 36.67 44.14 36.79 44.51 36.64L48.65 34.96C49.02 34.81 49.19 34.45 49.05 34.12L37.32 6.5C37.21 6.25 37.01 6.07 36.72 5.97C36.43 5.87 36.14 5.89 35.86 6.01V6.02ZM24.08 12.61C21.53 14.4 19.13 16.36 16.92 18.45C16.57 18.78 16.56 19.28 16.89 19.63L36.28 39.43C36.51 39.67 36.89 39.74 37.21 39.6L41.51 37.85C41.71 37.77 41.85 37.63 41.92 37.44C41.99 37.25 41.96 37.07 41.85 36.91L25.65 12.86C25.49 12.62 25.25 12.48 24.93 12.43C24.62 12.38 24.33 12.45 24.08 12.62V12.61ZM14.36 21.02C14.56 20.8 14.84 20.69 15.16 20.69C15.48 20.69 15.76 20.8 15.97 21.01L34.39 39.83C34.55 39.99 34.61 40.19 34.55 40.4C34.5 40.61 34.35 40.77 34.12 40.86L29.26 42.84C28.98 42.95 28.66 42.92 28.42 42.75L9.17 28.9C8.78 28.62 8.68 28.14 8.94 27.76C10.56 25.4 12.37 23.15 14.35 21.03L14.36 21.02ZM7.04 30.74C7.19 30.49 7.44 30.33 7.76 30.27C8.08 30.21 8.39 30.27 8.64 30.46L30.55 46.22C30.55 46.22 30.62 46.28 30.64 46.32C31.74 48.55 32.55 50.76 33.13 52.94C33.16 53.05 33.11 53.15 33.01 53.22C32.91 53.29 32.78 53.29 32.67 53.24L3.95 39.02C3.51 38.8 3.32 38.36 3.48 37.96C4.47 35.47 5.66 33.07 7.04 30.75V30.74ZM2.31 41.21C1.55 43.58 0.97 46.01 0.58 48.5C0.51 48.92 0.79 49.32 1.26 49.46L33.19 59.42C33.45 59.5 33.72 59.46 33.94 59.32C34.16 59.17 34.27 58.96 34.24 58.72C34.12 57.74 33.97 56.76 33.79 55.77C33.75 55.56 33.62 55.4 33.41 55.3L3.84 40.68C3.55 40.54 3.23 40.52 2.92 40.63C2.61 40.74 2.4 40.94 2.31 41.22V41.21ZM0.17 51.92C0.06 53.25 0 54.59 0 55.94V58.86C0 59.3 0.36 59.67 0.86 59.74L33.68 64.7C33.92 64.74 34.14 64.68 34.33 64.55C34.51 64.42 34.61 64.23 34.6 64.03C34.58 63.31 34.55 62.59 34.51 61.86C34.49 61.59 34.3 61.36 34 61.26L1.57 51.14C1.25 51.04 0.93 51.07 0.65 51.23C0.37 51.39 0.2 51.63 0.18 51.92H0.17ZM0 62.19C0 61.92 0.13 61.68 0.37 61.5C0.62 61.32 0.91 61.26 1.22 61.3L33.98 66.25C34.36 66.31 34.63 66.58 34.63 66.91C34.63 67.55 34.63 68.18 34.61 68.82C34.61 69.19 34.26 69.48 33.83 69.48H1.04C0.47 69.48 0 69.08 0 68.59V62.18V62.19ZM0 71.87V78.28C0 78.55 0.13 78.79 0.37 78.97C0.62 79.15 0.91 79.21 1.22 79.17L33.88 74.23C34.25 74.17 34.52 73.9 34.53 73.58C34.53 72.94 34.55 72.31 34.56 71.67C34.56 71.48 34.49 71.32 34.34 71.19C34.19 71.06 34 70.99 33.78 70.99H1.04C0.47 70.99 0 71.39 0 71.88V71.87ZM0 81.61C0 81.17 0.36 80.8 0.86 80.73L33.61 75.78C33.84 75.74 34.06 75.79 34.25 75.92C34.43 76.05 34.53 76.22 34.53 76.43C34.53 77.13 34.56 77.83 34.58 78.53C34.59 78.83 34.39 79.08 34.07 79.18L1.57 89.32C1.25 89.42 0.93 89.39 0.65 89.23C0.37 89.07 0.2 88.83 0.18 88.54C0.07 87.21 0.01 85.87 0.01 84.52V81.6L0 81.61ZM0.58 91.96C0.97 94.44 1.55 96.87 2.31 99.24C2.4 99.52 2.61 99.72 2.92 99.83C3.23 99.94 3.55 99.92 3.84 99.78L34.7 84.51C34.98 84.37 35.13 84.11 35.08 83.84C34.95 83.04 34.86 82.24 34.78 81.44C34.76 81.22 34.63 81.05 34.42 80.93C34.21 80.81 33.97 80.79 33.73 80.86L1.26 91C0.79 91.15 0.52 91.54 0.58 91.96ZM3.49 102.51C4.48 104.99 5.67 107.4 7.05 109.72C7.2 109.97 7.45 110.14 7.77 110.19C8.09 110.25 8.4 110.18 8.65 110L36.24 90.16C36.49 89.98 36.58 89.72 36.49 89.45C36.18 88.55 35.91 87.66 35.69 86.76C35.64 86.54 35.48 86.38 35.24 86.29C35 86.2 34.75 86.21 34.53 86.32L3.96 101.45C3.52 101.67 3.33 102.11 3.49 102.52V102.51ZM8.95 112.7C8.69 112.32 8.79 111.84 9.18 111.56L36.41 91.97C36.61 91.83 36.85 91.78 37.1 91.83C37.35 91.88 37.54 92.02 37.64 92.23C38.09 93.18 38.61 94.13 39.2 95.08C39.35 95.33 39.32 95.61 39.11 95.83L15.99 119.45C15.78 119.66 15.5 119.77 15.18 119.77C14.86 119.77 14.58 119.65 14.38 119.43C12.39 117.31 10.58 115.06 8.97 112.7H8.95ZM16.92 122.01C16.57 121.68 16.56 121.18 16.89 120.83L39.68 97.54C39.84 97.37 40.07 97.29 40.33 97.3C40.58 97.31 40.8 97.42 40.94 97.6C41.66 98.55 42.47 99.49 43.36 100.43C43.57 100.65 43.6 100.94 43.43 101.19L25.64 127.6C25.48 127.84 25.24 127.98 24.92 128.03C24.61 128.08 24.32 128.01 24.07 127.84C21.52 126.05 19.12 124.09 16.91 122L16.92 122.01ZM27.19 129.9C26.75 129.63 26.63 129.13 26.9 128.73L44.38 102.78C44.51 102.59 44.71 102.48 44.97 102.45C45.22 102.42 45.45 102.5 45.63 102.66C46.64 103.57 47.73 104.49 48.93 105.4C49.17 105.59 49.26 105.87 49.14 106.13L37.32 133.96C37.21 134.21 37.01 134.39 36.72 134.49C36.43 134.59 36.14 134.58 35.86 134.46C32.83 133.14 29.93 131.61 27.19 129.92V129.9ZM39.39 135.87C38.88 135.68 38.64 135.19 38.83 134.74L50.36 107.6C50.45 107.39 50.63 107.24 50.88 107.18C51.13 107.12 51.38 107.16 51.58 107.3C52.88 108.19 54.27 109.08 55.78 109.97C56.04 110.12 56.16 110.37 56.11 110.64L50.48 138.03C50.43 138.29 50.27 138.49 50.02 138.63C49.77 138.77 49.49 138.81 49.19 138.75C45.82 138.01 42.55 137.04 39.4 135.87H39.39Z" fill="black"/>
<path fill-rule="evenodd" clip-rule="evenodd" d="M83.4793 139.48C80.1093 140.04 76.6393 140.37 73.1093 140.46C72.8193 140.46 72.5593 140.38 72.3493 140.21C72.1393 140.04 72.0293 139.82 72.0293 139.57V114.94C72.0293 114.69 72.1793 114.48 72.4293 114.35C74.2993 113.45 76.0593 112.56 77.6993 111.66C77.9293 111.54 78.1893 111.52 78.4393 111.61C78.6893 111.7 78.8493 111.88 78.8893 112.11L84.3093 138.45C84.4093 138.93 84.0393 139.39 83.4793 139.48ZM73.1093 0C76.6393 0.09 80.1093 0.42 83.4793 0.98C84.0393 1.07 84.4093 1.53 84.3093 2.01L78.4993 30.25C78.4593 30.46 78.3093 30.63 78.0893 30.73C77.8693 30.83 77.6193 30.83 77.3993 30.74L72.4793 28.74C72.1993 28.63 72.0293 28.4 72.0293 28.13V0.9C72.0293 0.65 72.1393 0.43 72.3493 0.26C72.5593 0.08 72.8193 0 73.1093 0.01V0ZM87.2793 1.71C86.9893 1.65 86.7093 1.68 86.4493 1.82C86.1993 1.96 86.0393 2.16 85.9893 2.42L80.0593 31.27C79.9993 31.57 80.1693 31.86 80.4993 31.99L84.8193 33.75C85.0293 33.83 85.2393 33.84 85.4493 33.76C85.6593 33.69 85.8093 33.55 85.8893 33.37L97.6293 5.71C97.8193 5.26 97.5693 4.77 97.0693 4.58C93.9293 3.41 90.6593 2.44 87.2893 1.7L87.2793 1.71ZM100.599 6.02C103.629 7.34 106.529 8.86 109.269 10.56C109.709 10.83 109.829 11.33 109.559 11.73L92.9593 36.37C92.7593 36.67 92.3193 36.79 91.9493 36.64L87.8093 34.96C87.4393 34.81 87.2693 34.45 87.4093 34.12L99.1393 6.5C99.2493 6.25 99.4493 6.07 99.7393 5.97C100.029 5.87 100.319 5.89 100.599 6.01V6.02ZM112.369 12.61C114.919 14.4 117.319 16.36 119.529 18.45C119.879 18.78 119.889 19.28 119.559 19.63L100.169 39.43C99.9393 39.67 99.5593 39.74 99.2393 39.6L94.9393 37.85C94.7393 37.77 94.5993 37.63 94.5293 37.44C94.4593 37.25 94.4893 37.07 94.5993 36.91L110.809 12.84C110.969 12.6 111.209 12.46 111.529 12.41C111.839 12.36 112.129 12.43 112.379 12.6L112.369 12.61ZM122.089 21.02C121.889 20.8 121.609 20.69 121.289 20.69C120.969 20.69 120.689 20.8 120.479 21.01L102.059 39.83C101.899 39.99 101.839 40.19 101.899 40.4C101.949 40.61 102.099 40.77 102.329 40.86L107.189 42.84C107.469 42.95 107.789 42.92 108.029 42.75L127.279 28.9C127.669 28.62 127.769 28.14 127.509 27.76C125.889 25.4 124.079 23.15 122.099 21.03L122.089 21.02ZM129.41 30.74C129.26 30.49 129.009 30.33 128.689 30.27C128.369 30.21 128.059 30.27 127.809 30.46L105.899 46.22C105.899 46.22 105.829 46.28 105.809 46.32C104.709 48.55 103.899 50.76 103.319 52.94C103.289 53.05 103.339 53.15 103.439 53.22C103.539 53.29 103.669 53.29 103.779 53.24L132.499 39.03C132.939 38.81 133.129 38.37 132.969 37.97C131.979 35.48 130.79 33.08 129.41 30.76V30.74ZM134.139 41.21C134.899 43.58 135.479 46.01 135.869 48.5C135.939 48.92 135.659 49.32 135.189 49.46L103.259 59.42C102.999 59.5 102.729 59.46 102.509 59.32C102.289 59.17 102.179 58.96 102.209 58.72C102.329 57.74 102.48 56.76 102.66 55.77C102.7 55.56 102.829 55.4 103.039 55.3L132.6 40.67C132.89 40.53 133.21 40.51 133.52 40.62C133.83 40.73 134.04 40.93 134.13 41.21H134.139ZM136.279 51.92C136.389 53.25 136.449 54.59 136.449 55.94V58.86C136.449 59.3 136.089 59.67 135.589 59.74L102.769 64.7C102.529 64.74 102.309 64.68 102.119 64.55C101.939 64.42 101.839 64.23 101.849 64.03C101.869 63.31 101.899 62.59 101.939 61.86C101.959 61.59 102.149 61.36 102.449 61.26L134.869 51.14C135.189 51.04 135.509 51.07 135.789 51.23C136.069 51.39 136.239 51.63 136.259 51.92H136.279ZM136.449 62.19C136.449 61.92 136.319 61.68 136.079 61.5C135.829 61.32 135.539 61.26 135.229 61.3L102.469 66.25C102.089 66.31 101.819 66.58 101.819 66.91C101.819 67.55 101.819 68.18 101.839 68.82C101.839 69.19 102.189 69.48 102.619 69.48H135.41C135.98 69.48 136.449 69.08 136.449 68.59V62.18V62.19ZM136.449 71.87V78.28C136.449 78.55 136.319 78.79 136.079 78.97C135.829 79.15 135.539 79.21 135.229 79.17L102.569 74.23C102.199 74.17 101.929 73.9 101.919 73.58C101.919 72.94 101.899 72.31 101.889 71.67C101.889 71.48 101.959 71.32 102.109 71.19C102.259 71.06 102.449 70.99 102.669 70.99H135.41C135.98 70.99 136.449 71.39 136.449 71.88V71.87ZM136.449 81.61C136.449 81.17 136.089 80.8 135.589 80.73L102.839 75.78C102.609 75.74 102.389 75.79 102.199 75.92C102.019 76.05 101.919 76.22 101.919 76.43C101.919 77.13 101.889 77.83 101.869 78.53C101.859 78.83 102.059 79.08 102.379 79.18L134.88 89.32C135.2 89.42 135.519 89.39 135.799 89.23C136.079 89.07 136.25 88.83 136.27 88.54C136.38 87.21 136.439 85.87 136.439 84.52V81.6L136.449 81.61ZM135.869 91.96C135.479 94.44 134.899 96.87 134.139 99.24C134.049 99.52 133.839 99.72 133.529 99.83C133.219 99.94 132.899 99.92 132.609 99.78L101.749 84.51C101.469 84.37 101.319 84.11 101.369 83.84C101.499 83.04 101.589 82.24 101.669 81.44C101.689 81.22 101.819 81.05 102.029 80.93C102.239 80.81 102.479 80.79 102.719 80.86L135.189 90.99C135.659 91.14 135.929 91.53 135.869 91.95V91.96ZM132.969 102.51C131.979 104.99 130.79 107.4 129.41 109.72C129.26 109.97 129.009 110.14 128.689 110.19C128.369 110.25 128.059 110.18 127.809 110L100.219 90.16C99.9693 89.98 99.8793 89.72 99.9693 89.45C100.279 88.55 100.549 87.66 100.769 86.76C100.819 86.54 100.979 86.38 101.219 86.29C101.459 86.2 101.709 86.21 101.929 86.32L132.499 101.45C132.939 101.67 133.129 102.11 132.969 102.52V102.51ZM127.509 112.7C127.769 112.32 127.669 111.84 127.279 111.56L100.049 91.97C99.8493 91.83 99.6093 91.78 99.3593 91.83C99.1093 91.88 98.9193 92.02 98.8193 92.23C98.3693 93.18 97.8493 94.13 97.2593 95.08C97.1093 95.33 97.1393 95.61 97.3493 95.83L120.469 119.45C120.679 119.66 120.959 119.77 121.279 119.77C121.599 119.77 121.879 119.65 122.079 119.43C124.069 117.31 125.879 115.06 127.489 112.7H127.509ZM119.529 122.01C119.879 121.68 119.889 121.18 119.559 120.83L96.7693 97.54C96.6093 97.37 96.3793 97.29 96.1293 97.3C95.8693 97.31 95.6593 97.42 95.5193 97.6C94.7993 98.55 93.9893 99.49 93.0993 100.43C92.8893 100.65 92.8693 100.94 93.0293 101.19L110.819 127.6C110.979 127.84 111.219 127.98 111.539 128.03C111.849 128.08 112.139 128.01 112.389 127.84C114.939 126.05 117.339 124.09 119.549 122L119.529 122.01ZM109.259 129.9C109.699 129.63 109.819 129.13 109.549 128.73L92.0693 102.78C91.9393 102.59 91.7393 102.48 91.4793 102.45C91.2293 102.42 90.9993 102.5 90.8193 102.66C89.8093 103.57 88.7193 104.49 87.5193 105.4C87.2793 105.59 87.1893 105.87 87.3093 106.13L99.1293 133.96C99.2393 134.21 99.4393 134.39 99.7293 134.49C100.019 134.59 100.309 134.58 100.589 134.46C103.619 133.14 106.519 131.61 109.259 129.92V129.9ZM97.0693 135.87C97.5793 135.68 97.8193 135.19 97.6293 134.74L86.0993 107.6C86.0093 107.39 85.8293 107.24 85.5793 107.18C85.3293 107.12 85.0793 107.16 84.8793 107.3C83.5793 108.19 82.1893 109.08 80.6793 109.97C80.4193 110.12 80.2993 110.37 80.3493 110.64L85.9793 138.03C86.0293 138.29 86.1893 138.49 86.4393 138.63C86.6893 138.77 86.9693 138.81 87.2693 138.75C90.6393 138.01 93.9093 137.04 97.0593 135.87H97.0693Z" fill="black"/>
</g>
</g>
<defs>
<clipPath id="clip0_2003_508">
<rect width="713" height="141" fill="white"/>
</clipPath>
</defs>
</svg>
