<svg width="1400" height="276" viewBox="0 0 1400 276" fill="none" xmlns="http://www.w3.org/2000/svg">
<path d="M0 6.48438H1400" stroke="#EDEDED"/>
<path d="M0 51.3125H1400" stroke="#EDEDED"/>
<path d="M0 96.1406H1400" stroke="#EDEDED"/>
<path d="M0 140.969H1400" stroke="#EDEDED"/>
<path d="M0 185.797H1400" stroke="#EDEDED"/>
<path d="M0 230.625H1400" stroke="#EDEDED"/>
<path d="M0 275.453H1400" stroke="#EDEDED"/>
<path d="M0 -127.555L-2.00278e-05 275.895" stroke="#EDEDED"/>
<path d="M50 -127.555L50 275.895" stroke="#EDEDED"/>
<path d="M100 -127.555L100 275.895" stroke="#EDEDED"/>
<path d="M150 -127.555L150 275.895" stroke="#EDEDED"/>
<path d="M200 -127.555L200 275.895" stroke="#EDEDED"/>
<path d="M250 -127.555L250 275.895" stroke="#EDEDED"/>
<path d="M300 -127.555L300 275.895" stroke="#EDEDED"/>
<path d="M350 -127.555L350 275.895" stroke="#EDEDED"/>
<path d="M400 -127.555L400 275.895" stroke="#EDEDED"/>
<path d="M450 -127.555L450 275.895" stroke="#EDEDED"/>
<path d="M500 -127.555L500 275.895" stroke="#EDEDED"/>
<path d="M550 -127.555L550 275.895" stroke="#EDEDED"/>
<path d="M600 -127.555L600 275.895" stroke="#EDEDED"/>
<path d="M650 -127.555L650 275.895" stroke="#EDEDED"/>
<path d="M700 -127.555L700 275.895" stroke="#EDEDED"/>
<path d="M750 -127.555L750 275.895" stroke="#EDEDED"/>
<path d="M800 -127.555L800 275.895" stroke="#EDEDED"/>
<path d="M850 -127.555L850 275.895" stroke="#EDEDED"/>
<path d="M900 -127.555L900 275.895" stroke="#EDEDED"/>
<path d="M950 -127.555L950 275.895" stroke="#EDEDED"/>
<path d="M1000 -127.555L1000 275.895" stroke="#EDEDED"/>
<path d="M1050 -127.555L1050 275.895" stroke="#EDEDED"/>
<path d="M1100 -127.555L1100 275.895" stroke="#EDEDED"/>
<path d="M1150 -127.555L1150 275.895" stroke="#EDEDED"/>
<path d="M1200 -127.555L1200 275.895" stroke="#EDEDED"/>
<path d="M1250 -127.555L1250 275.895" stroke="#EDEDED"/>
<path d="M1300 -127.555L1300 275.895" stroke="#EDEDED"/>
<path d="M1350 -127.555L1350 275.895" stroke="#EDEDED"/>
<path d="M1400 -127.555L1400 275.895" stroke="#EDEDED"/>
</svg>
