<svg width="1400" height="450" viewBox="0 0 1400 450" fill="none" xmlns="http://www.w3.org/2000/svg">
<path d="M0 0H1400" stroke="#333333"/>
<path d="M0 50H1400" stroke="#333333"/>
<path d="M0 100H1400" stroke="#333333"/>
<path d="M0 150H1400" stroke="#333333"/>
<path d="M0 200H1400" stroke="#333333"/>
<path d="M0 250H1400" stroke="#333333"/>
<path d="M0 300H1400" stroke="#333333"/>
<path d="M0 350H1400" stroke="#333333"/>
<path d="M0 400H1400" stroke="#333333"/>
<path d="M0 450H1400" stroke="#333333"/>
<path d="M0 0.5L-2.00077e-05 499.5" stroke="#333333"/>
<path d="M50 0.5L50 499.5" stroke="#333333"/>
<path d="M100 0.5L100 499.5" stroke="#333333"/>
<path d="M150 0.5L150 499.5" stroke="#333333"/>
<path d="M200 0.5L200 499.5" stroke="#333333"/>
<path d="M250 0.5L250 499.5" stroke="#333333"/>
<path d="M300 0.5L300 499.5" stroke="#333333"/>
<path d="M350 0.5L350 499.5" stroke="#333333"/>
<path d="M400 0.5L400 499.5" stroke="#333333"/>
<path d="M450 0.5L450 499.5" stroke="#333333"/>
<path d="M500 0.5L500 499.5" stroke="#333333"/>
<path d="M550 0.5L550 499.5" stroke="#333333"/>
<path d="M600 0.5L600 499.5" stroke="#333333"/>
<path d="M650 0.5L650 499.5" stroke="#333333"/>
<path d="M700 0.5L700 499.5" stroke="#333333"/>
<path d="M750 0.5L750 499.5" stroke="#333333"/>
<path d="M800 0.5L800 499.5" stroke="#333333"/>
<path d="M850 0.5L850 499.5" stroke="#333333"/>
<path d="M900 0.5L900 499.5" stroke="#333333"/>
<path d="M950 0.5L950 499.5" stroke="#333333"/>
<path d="M1000 0.5L1000 499.5" stroke="#333333"/>
<path d="M1050 0.5L1050 499.5" stroke="#333333"/>
<path d="M1100 0.5L1100 499.5" stroke="#333333"/>
<path d="M1150 0.5L1150 499.5" stroke="#333333"/>
<path d="M1200 0.5L1200 499.5" stroke="#333333"/>
<path d="M1250 0.5L1250 499.5" stroke="#333333"/>
<path d="M1300 0.5L1300 499.5" stroke="#333333"/>
<path d="M1350 0.5L1350 499.5" stroke="#333333"/>
<path d="M1400 0.5L1400 499.5" stroke="#333333"/>
</svg>
