<svg width="298" height="120" viewBox="0 0 298 120" fill="none" xmlns="http://www.w3.org/2000/svg">
<g clip-path="url(#clip0_2086_1313)">
<path d="M41.7501 31.9375H16.6553V40.1518H41.7501V31.9375Z" fill="black"/>
<path d="M41.7501 47.9059H16.6553V56.1202H41.7501V47.9059Z" fill="black"/>
<path d="M41.7501 63.8776H16.6553V72.0916H41.7501V63.8776Z" fill="black"/>
<path d="M41.7501 79.8437H16.6553V88.0577H41.7501V79.8437Z" fill="black"/>
<path d="M58.4036 95.8147H0.457031V104.029H58.4036V95.8147Z" fill="black"/>
<path d="M58.4036 111.786H0.457031V120H58.4036V111.786Z" fill="black"/>
<path d="M57.9466 15.9662H0V24.1801H57.9466V15.9662Z" fill="black"/>
<path d="M57.9466 0H0V8.21397H57.9466V0Z" fill="black"/>
<path d="M226.075 40.1515L223.109 31.9375H181.586V40.1515H226.075Z" fill="black"/>
<path d="M206.681 56.1202V51.5557L208.28 56.1202H254.247L255.953 51.5557V56.1202H281.048V47.9059H233.944L231.436 54.8687L228.922 47.9059H181.586V56.1202H206.681Z" fill="black"/>
<path d="M206.681 63.8776H181.586V72.0916H206.681V63.8776Z" fill="black"/>
<path d="M248.74 72.0838L251.624 63.8776H211.245L214.269 72.0838H248.74Z" fill="black"/>
<path d="M206.681 79.8437H181.586V88.0577H206.681V79.8437Z" fill="black"/>
<path d="M206.682 95.8147H165.391V104.029H206.682V95.8147Z" fill="black"/>
<path d="M206.682 111.786H165.391V120H206.682V111.786Z" fill="black"/>
<path d="M242.986 88.0577L245.951 79.8437H216.943L219.884 88.0577H242.986Z" fill="black"/>
<path d="M237.426 104.029L240.271 95.8147H222.652L225.676 104.029H237.426Z" fill="black"/>
<path d="M231.291 119.98L231.789 119.993L234.739 111.786H228.387L231.291 119.98Z" fill="black"/>
<path d="M164.934 15.974V24.1801H220.372L217.629 15.974H164.934Z" fill="black"/>
<path d="M164.934 0V8.21397H214.896L211.93 0H164.934Z" fill="black"/>
<path d="M281.048 40.1515V31.9375H239.308L236.34 40.1515H281.048Z" fill="black"/>
<path d="M281.048 63.8776H255.953V72.0916H281.048V63.8776Z" fill="black"/>
<path d="M281.048 79.8437H255.953V88.0577H281.048V79.8437Z" fill="black"/>
<path d="M297.701 95.8147H255.953V104.029H297.701V95.8147Z" fill="black"/>
<path d="M297.701 111.786H255.953V120H297.701V111.786Z" fill="black"/>
<path d="M244.781 15.974L242.038 24.1801H297.244V15.974H244.781Z" fill="black"/>
<path d="M250.713 0L247.747 8.21397H297.245V0H250.713Z" fill="black"/>
<path d="M107.901 31.9375H82.8057V40.1518H107.901V31.9375Z" fill="black"/>
<path d="M146.911 56.1202C146.911 56.1202 152.275 51.9032 153.983 47.9059H82.8057V56.1202H146.911Z" fill="black"/>
<path d="M82.8057 63.8776V72.0838H153.983C152.274 68.0994 146.911 63.8776 146.911 63.8776H82.8057Z" fill="black"/>
<path d="M107.901 79.8437H82.8057V88.0577H107.901V79.8437Z" fill="black"/>
<path d="M157.409 40.1515C157.409 40.1515 159.006 35.8169 159.006 31.9371H132.314V40.1515H157.409Z" fill="black"/>
<path d="M132.313 79.8437V88.0577H159.005C159.005 84.1831 157.408 79.8437 157.408 79.8437H132.313Z" fill="black"/>
<path d="M66.1611 15.974V24.1801H158.318C158.318 24.1801 157.238 17.8536 155.36 15.974H66.1611Z" fill="black"/>
<path d="M155.36 104.029C157.238 102.146 158.318 95.8147 158.318 95.8147H66.1611V104.029H155.36Z" fill="black"/>
<path d="M66.1611 0V8.21397H148.737C148.737 8.21397 140.296 0 129.124 0H66.1611Z" fill="black"/>
<path d="M129.124 119.993C140.296 119.993 148.737 111.786 148.737 111.786H66.1611V119.993H129.124Z" fill="black"/>
</g>
<defs>
<clipPath id="clip0_2086_1313">
<rect width="297.702" height="120" fill="white"/>
</clipPath>
</defs>
</svg>
