<svg xmlns="http://www.w3.org/2000/svg" width="291" height="54" fill="none" viewBox="0 0 291 54"><path fill="#666" d="M0 .642v8.596h8.596v21.08h11.45V9.237h8.56V.642H0ZM48.615.642l11.521 29.675h-11.77l-5.886-17.37-5.85 17.37H24.79L36.38.642h12.234ZM57.285.642v8.596h8.56v21.08h11.486V9.237h8.56V.642H57.285ZM105.936.642l11.52 29.675H105.65l-5.885-17.37-5.885 17.37H82.11L93.665.642h12.27ZM155.334 29.462c-1.248.642-4.102 1.32-7.776 1.32-9.487 0-15.23-5.922-15.23-15.017C132.328 5.957 139.176 0 148.307 0c3.603 0 6.1.749 7.205 1.32l-1.141 4.351c-1.427-.642-3.424-1.141-5.885-1.141-6.064 0-10.451 3.816-10.451 10.95 0 6.563 3.816 10.665 10.379 10.665 2.176 0 4.495-.464 5.921-1.07l.856 4.28.107.107h.036ZM174.631.499h-6.955l-9.524 29.854h5.6l2.568-8.453h9.488l2.675 8.453h5.814L174.56.5h.071Zm-7.49 17.263 2.354-7.383c.499-1.783.963-3.888 1.426-5.6h.107c.464 1.784.928 3.817 1.499 5.6l2.354 7.383h-7.74ZM205.554 2.746c-1.641-1.355-3.995-2.176-7.133-2.39h-1.641c-3.603 0-6.349.214-8.346.642V30.46h5.421V19.153c.749.179 1.641.214 2.675.214.642 0 1.32 0 1.926-.107 3.032-.285 5.636-1.32 7.491-3.138 1.64-1.605 2.496-3.888 2.496-6.742 0-2.853-1.141-5.136-2.924-6.634h.035Zm-7.133 12.092c-.571.107-1.249.178-1.926.178-1.142 0-1.927-.071-2.676-.285V4.744c.571-.179 1.641-.286 3.139-.286.5 0 1.035 0 1.498.107 2.925.393 4.637 2.105 4.637 4.958 0 2.854-1.712 4.744-4.637 5.315h-.035ZM218.644.499h-5.421v29.854h5.421V.5ZM230.63 5.065h-8.489V.499h22.47v4.566h-8.56v25.252h-5.421V5.065ZM259.201.499h-6.955l-9.523 29.854h5.6l2.568-8.453h9.487l2.675 8.453h5.814L259.13.5h.071Zm-7.383 17.263 2.283-7.383c.499-1.783.963-3.888 1.426-5.6h.107v.107c.464 1.712.928 3.71 1.499 5.493l2.354 7.383h-7.669ZM273.074.499h5.457v25.253h12.235v4.565h-17.692V.5Z"/><path fill="#D7DB29" d="M290.8 43.622H0v9.88h290.8v-9.88Z"/></svg>