<svg width="1400" height="142" viewBox="0 0 1400 142" fill="none" xmlns="http://www.w3.org/2000/svg">
<path d="M0 0.5H1400" stroke="#EDEDED"/>
<path d="M0 50.5H1400" stroke="#EDEDED"/>
<path d="M0 100.5H1400" stroke="#EDEDED"/>
<path d="M0 1L-2.00278e-05 451" stroke="#EDEDED"/>
<path d="M50 1L50 451" stroke="#EDEDED"/>
<path d="M100 1L100 451" stroke="#EDEDED"/>
<path d="M150 1L150 451" stroke="#EDEDED"/>
<path d="M200 1L200 451" stroke="#EDEDED"/>
<path d="M250 1L250 451" stroke="#EDEDED"/>
<path d="M300 1L300 451" stroke="#EDEDED"/>
<path d="M350 1L350 451" stroke="#EDEDED"/>
<path d="M400 1L400 451" stroke="#EDEDED"/>
<path d="M450 1L450 451" stroke="#EDEDED"/>
<path d="M500 1L500 451" stroke="#EDEDED"/>
<path d="M550 1L550 451" stroke="#EDEDED"/>
<path d="M600 1L600 451" stroke="#EDEDED"/>
<path d="M650 1L650 451" stroke="#EDEDED"/>
<path d="M700 1L700 451" stroke="#EDEDED"/>
<path d="M750 1L750 451" stroke="#EDEDED"/>
<path d="M800 1L800 451" stroke="#EDEDED"/>
<path d="M850 1L850 451" stroke="#EDEDED"/>
<path d="M900 1L900 451" stroke="#EDEDED"/>
<path d="M950 1L950 451" stroke="#EDEDED"/>
<path d="M1000 1L1000 451" stroke="#EDEDED"/>
<path d="M1050 1L1050 451" stroke="#EDEDED"/>
<path d="M1100 1L1100 451" stroke="#EDEDED"/>
<path d="M1150 1L1150 451" stroke="#EDEDED"/>
<path d="M1200 1L1200 451" stroke="#EDEDED"/>
<path d="M1250 1L1250 451" stroke="#EDEDED"/>
<path d="M1300 1L1300 451" stroke="#EDEDED"/>
<path d="M1350 1L1350 451" stroke="#EDEDED"/>
<path d="M1400 1L1400 451" stroke="#EDEDED"/>
</svg>
