<svg width="362" height="50" viewBox="0 0 362 50" fill="none" xmlns="http://www.w3.org/2000/svg">
<g clip-path="url(#clip0_2018_13692)">
<mask id="mask0_2018_13692" style="mask-type:luminance" maskUnits="userSpaceOnUse" x="0" y="0" width="362" height="50">
<path d="M361.364 0H0V50H361.364V0Z" fill="white"/>
</mask>
<g mask="url(#mask0_2018_13692)">
<path d="M329.457 16.6014L319.741 33.3986C319.202 34.3859 317.902 35.2452 316.807 35.2507H290.739C290.032 35.2507 289.691 34.9352 289.691 34.307C289.691 34.0214 289.745 33.7414 289.948 33.4014L299.659 16.6041C300.198 15.6168 301.502 14.7574 302.593 14.7492H311.902C312.609 14.7492 312.952 15.0647 312.952 15.6957C312.952 15.9813 312.893 16.2587 312.693 16.6014L304.05 31.5464C303.882 31.8891 303.78 32.1857 303.78 32.4711C303.78 33.0968 304.132 33.3959 304.843 33.3959C305.355 33.3959 305.88 33.2409 306.445 32.8682C307.014 32.4984 307.461 32.0605 307.773 31.5464L316.418 16.6041C316.959 15.6168 318.257 14.7574 319.348 14.7492H328.661C329.368 14.7492 329.709 15.0647 329.709 15.6957C329.709 15.9813 329.652 16.2587 329.457 16.6014ZM295.616 20.371L297.795 16.6014C297.998 16.2587 298.055 15.9813 298.055 15.6957C298.055 15.0647 297.711 14.7492 297.007 14.7492H270.934C269.843 14.7574 268.541 15.6141 268.002 16.6041L258.289 33.4014C258.12 33.6707 258.032 33.9861 258.034 34.307C258.034 34.9352 258.373 35.2507 259.084 35.2507H268.391C269.484 35.2425 270.786 34.3859 271.325 33.3959L279.968 18.4563C280.284 17.9422 280.732 17.5016 281.295 17.1318C281.864 16.7619 282.389 16.6041 282.9 16.6041C283.611 16.6041 283.964 16.9033 283.964 17.5315C283.964 17.8171 283.861 18.1136 283.689 18.4563L282.58 20.3737C282.382 20.7191 282.323 20.9938 282.323 21.2794C282.323 21.9104 282.664 22.2258 283.37 22.2258H292.684C293.777 22.2204 295.075 21.3637 295.616 20.3737V20.371ZM171.088 16.6014L161.375 33.3959C160.836 34.3832 159.536 35.2425 158.445 35.248L145.407 35.2425C144.316 35.248 143.016 36.1075 142.477 37.0975L135.607 48.9745C135.213 49.6627 134.816 50 134.419 50C134.163 50 134.008 49.8368 133.85 49.6057L128.754 40.7936C128.594 40.4536 128.512 40.0811 128.518 39.7057C128.518 39.0475 128.624 38.4764 128.937 37.9595L141.291 16.6014C141.833 15.6141 143.133 14.7547 144.227 14.7492H170.296C171 14.7492 171.343 15.0647 171.343 15.693C171.343 15.9813 171.289 16.2587 171.088 16.6014ZM157.256 17.5261C157.256 16.9006 156.902 16.6014 156.192 16.6014C155.678 16.6014 155.155 16.7564 154.59 17.129C154.051 17.4635 153.597 17.915 153.259 18.4508L145.688 31.5409C145.516 31.8864 145.413 32.1802 145.413 32.4657C145.413 33.0941 145.766 33.3932 146.477 33.3932C146.988 33.3932 147.513 33.2382 148.082 32.8655C148.65 32.493 149.099 32.055 149.409 31.5409L156.981 18.4508C157.152 18.1081 157.256 17.8117 157.256 17.5261ZM129.666 33.3959L133.986 25.9275C134.185 25.582 134.239 25.3073 134.239 25.0218C134.239 24.3907 133.902 24.0752 133.192 24.0752H120.157C119.447 24.0752 119.093 23.7761 119.093 23.148C119.093 22.8623 119.197 22.5658 119.368 22.2231L121.55 18.4535C121.866 17.9395 122.315 17.5016 122.88 17.129C123.444 16.7591 123.969 16.6014 124.48 16.6014C125.193 16.6014 125.547 16.9006 125.547 17.5288C125.547 17.8171 125.44 18.1109 125.272 18.4535L124.162 20.3737C123.993 20.6457 123.903 20.9584 123.906 21.2794C123.906 21.9076 124.246 22.2231 124.954 22.2231H134.266C135.357 22.2177 136.658 21.361 137.196 20.371L139.381 16.6014C139.55 16.3294 139.637 16.0166 139.637 15.6957C139.637 15.0647 139.294 14.7492 138.589 14.7492H112.515C111.424 14.7574 110.123 15.6141 109.582 16.6041L105.264 24.0725C105.093 24.3445 105.006 24.66 105.009 24.9809C105.009 25.6093 105.346 25.9248 106.056 25.9248H119.091C119.801 25.9248 120.154 26.2239 120.154 26.852C120.154 27.1377 120.051 27.4341 119.88 27.7741L117.698 31.5464C117.36 32.0823 116.906 32.5336 116.37 32.8682C115.804 33.2409 115.276 33.3986 114.768 33.3986C114.057 33.3986 113.701 33.0995 113.701 32.4711C113.701 32.1857 113.807 31.8891 113.976 31.5464L115.086 29.6264C115.284 29.2836 115.342 29.0061 115.342 28.7207C115.342 28.0895 115.001 27.7741 114.294 27.7741H104.984C103.893 27.7823 102.59 28.6391 102.051 29.6291L99.8693 33.4014C99.7007 33.6734 99.6136 33.9861 99.6136 34.307C99.6136 34.9352 99.9536 35.2507 100.661 35.2507H126.733C127.824 35.2452 129.127 34.3886 129.666 33.3959ZM195.19 29.6264L193.01 33.3959C192.469 34.3832 191.168 35.2425 190.077 35.248H164.006C163.298 35.248 162.958 34.9352 162.958 34.3043C162.958 34.0186 163.015 33.7414 163.217 33.3986L172.927 16.6014C173.465 15.6141 174.768 14.7547 175.86 14.7492H201.931C202.639 14.7492 202.979 15.0647 202.979 15.693C202.979 15.9813 202.922 16.2587 202.72 16.6014L198.4 24.0752C197.861 25.0598 196.558 25.9193 195.47 25.9275L182.435 25.9193C181.342 25.9275 180.041 26.7841 179.503 27.7741L177.32 31.5409C177.149 31.8864 177.046 32.1802 177.046 32.4657C177.046 33.0941 177.399 33.3932 178.11 33.3932C178.621 33.3932 179.146 33.2382 179.715 32.8655C180.283 32.493 180.729 32.055 181.042 31.5409L182.155 29.6264C182.691 28.6364 183.994 27.7795 185.088 27.7714H194.398C195.103 27.7714 195.445 28.0868 195.445 28.718C195.445 29.0034 195.391 29.2836 195.19 29.6264ZM182.441 23.148C182.441 23.7761 182.794 24.0752 183.505 24.0752C184.016 24.0752 184.538 23.9175 185.107 23.5477C185.675 23.175 186.127 22.7373 186.437 22.2231L188.617 18.4535C188.791 18.1109 188.894 17.8171 188.894 17.5288C188.894 16.9006 188.538 16.6014 187.827 16.6014C187.319 16.6014 186.794 16.7591 186.225 17.1318C185.657 17.5016 185.207 17.9395 184.895 18.4535L182.715 22.2231C182.544 22.5685 182.441 22.8623 182.441 23.148ZM226.95 29.6264L224.768 33.3959C224.23 34.3832 222.929 35.2425 221.836 35.248H195.766C195.059 35.248 194.719 34.9352 194.719 34.3043C194.719 34.0186 194.776 33.7414 194.975 33.3986L204.688 16.6014C205.229 15.6141 206.527 14.7547 207.62 14.7492H233.689C234.398 14.7492 234.736 15.0647 234.736 15.693C234.736 15.9813 234.68 16.2587 234.482 16.6014L230.161 24.0752C229.623 25.0598 228.318 25.9193 227.228 25.9275L214.196 25.9193C213.102 25.9275 211.802 26.7841 211.263 27.7741L209.081 31.5409C208.91 31.8864 208.806 32.1802 208.806 32.4657C208.806 33.0941 209.16 33.3932 209.87 33.3932C210.382 33.3932 210.904 33.2382 211.473 32.8655C212.041 32.493 212.49 32.055 212.803 31.5409L213.913 29.6264C214.455 28.6364 215.755 27.7795 216.846 27.7714H226.159C226.866 27.7714 227.206 28.0868 227.206 28.718C227.206 29.0034 227.149 29.2836 226.95 29.6264ZM214.199 23.148C214.199 23.7761 214.555 24.0752 215.265 24.0752C215.777 24.0752 216.299 23.9175 216.868 23.5477C217.436 23.175 217.885 22.7373 218.198 22.2231L220.38 18.4535C220.549 18.1109 220.652 17.8171 220.652 17.5288C220.652 16.9006 220.298 16.6014 219.588 16.6014C219.077 16.6014 218.552 16.7591 217.983 17.1318C217.447 17.4663 216.993 17.9178 216.655 18.4535L214.474 22.2231C214.305 22.5685 214.199 22.8623 214.199 23.148ZM268.786 12.0404L256.43 33.3986C255.886 34.3859 254.589 35.2452 253.495 35.2507H227.423C226.719 35.2507 226.376 34.9352 226.376 34.307C226.376 34.0214 226.433 33.7414 226.635 33.4014L236.345 16.6041C236.886 15.6168 238.186 14.7574 239.28 14.7492L252.311 14.7574C253.402 14.7492 254.707 13.8925 255.245 12.9025L262.111 1.02535C262.509 0.33725 262.907 0 263.3 0C263.557 0 263.714 0.163185 263.87 0.394364L268.968 9.20366C269.109 9.48923 269.205 9.86454 269.205 10.2916C269.205 10.9525 269.098 11.5236 268.786 12.0404ZM252.309 17.5315C252.309 16.9033 251.957 16.6041 251.245 16.6041C250.732 16.6041 250.209 16.7619 249.641 17.1318C249.105 17.469 248.65 17.9205 248.314 18.4563L240.741 31.5464C240.57 31.8891 240.466 32.1857 240.466 32.4711C240.466 33.0968 240.823 33.3959 241.53 33.3959C242.041 33.3959 242.564 33.2409 243.136 32.8682C243.705 32.4984 244.15 32.0605 244.464 31.5464L252.034 18.4563C252.202 18.1109 252.309 17.8171 252.309 17.5315ZM360.316 14.752H334.248C333.152 14.7601 331.852 15.6168 331.314 16.6041L321.602 33.4041C321.4 33.7468 321.345 34.0241 321.345 34.3098C321.345 34.9407 321.686 35.2561 322.393 35.2561H331.702C332.793 35.248 334.098 34.3914 334.636 33.4014L343.28 18.459C343.62 17.9232 344.075 17.4717 344.609 17.1345C345.175 16.7646 345.7 16.6068 346.216 16.6068C346.923 16.6068 347.277 16.906 347.277 17.5343C347.277 17.8198 347.173 18.119 347.002 18.459L338.361 33.4041C338.191 33.6734 338.102 33.9889 338.105 34.3098C338.105 34.9407 338.445 35.2561 339.152 35.2561H348.461C349.557 35.248 350.857 34.3914 351.395 33.4014L361.107 16.6041C361.277 16.3321 361.366 16.0194 361.364 15.6984C361.364 15.0702 361.023 14.7547 360.316 14.7547V14.752ZM98.7102 0H104.298L75.3834 50H69.798L98.7102 0ZM21.6155 7.50925H28.9884V35.2534H24.5945V11.695H21.6155V7.50925ZM58.8693 31.1357V30.0641L68.9411 20.4879V14.7384H53.4225V18.905H63.478L63.4889 19.9902L53.4225 29.6291V35.248H69.0145V31.1357H58.8693ZM52.1493 25.5305C52.1493 31.4377 47.6002 35.7023 41.6939 35.7023C35.79 35.7023 31.203 31.1902 31.203 25.5305C31.203 22.8623 31.962 20.9258 33.4966 18.7745L41.9141 7.53373H47.2575L41.4 15.1654C41.615 15.1382 41.7427 15.1327 42.1889 15.1327C47.6002 15.1327 52.1493 19.6203 52.1493 25.5305ZM47.7036 25.4461C47.7036 22.0409 45.0539 19.2124 41.6884 19.2124C38.3257 19.2124 35.6811 22.0409 35.6811 25.4461C35.6811 28.8511 38.2659 31.6798 41.6693 31.6798C45.073 31.6798 47.7036 28.8511 47.7036 25.4461ZM17.1292 14.7438H21.5094V35.2345H17.1292V33.5727L17.1264 33.5755V33.57H16.0518C14.7948 34.9461 13.3774 35.422 11.4729 35.6207H11.4621C11.073 35.6398 10.6812 35.648 10.2895 35.6452C5.09032 35.6452 0 31.5057 0 24.9864C0 18.4699 4.92709 14.1618 10.333 14.1618C10.605 14.1618 10.8907 14.1618 11.1818 14.1781H11.2308C12.8523 14.3086 14.8765 14.9995 16.0518 16.2913H17.1183C17.1183 16.2913 17.1264 16.2913 17.1292 16.2968V14.7438ZM16.9632 24.9102C16.9659 23.2348 16.3021 21.6302 15.1186 20.4444C13.9324 19.2613 12.3272 18.595 10.6486 18.5922C8.94548 18.595 7.31309 19.2831 6.12416 20.5042C4.93795 21.7254 4.29318 23.3736 4.33943 25.0734C4.42377 28.4948 7.2233 31.2282 10.6486 31.2336C14.082 31.2336 16.9632 28.3998 16.9632 24.9102Z" fill="black"/>
</g>
</g>
<defs>
<clipPath id="clip0_2018_13692">
<rect width="361.364" height="50" fill="white"/>
</clipPath>
</defs>
</svg>
