<svg width="352" height="120" viewBox="0 0 352 120" fill="none" xmlns="http://www.w3.org/2000/svg">
<path d="M120.04 43.399H126.248C127.476 47.0669 128.953 50.9512 130.268 54.6081L137.794 75.5214C138.222 74.2719 138.69 72.9962 139.153 71.7589C142.672 62.3522 145.879 52.7774 149.462 43.399H162.839L143.702 91.1745H131.72C130.406 88.3105 128.947 84.3245 127.752 81.342L120.041 62.093L120.04 120H0V0H120.04V43.399ZM87.8766 44.268C85.9187 43.3904 83.8978 43.1399 81.771 43.2919C75.4357 44.2087 70.611 49.1254 67.5607 54.4625C68.3515 51.027 69.1135 47.5849 69.8466 44.1365H52.2332C51.3928 47.1273 50.6087 50.3148 49.7231 53.2616L57.9961 53.2621C56.7571 57.8301 55.7297 62.4834 54.5424 67.0679C54.1644 68.5267 53.7493 70.054 53.4322 71.5178C52.6121 75.3017 50.0405 78.9028 46.6732 80.8307C44.6277 82.0016 39.8949 83.6432 38.4513 80.8143C38.1458 79.8222 38.2772 78.0611 38.5018 77.0514C39.4977 72.5754 40.6042 68.0586 41.7849 63.6273C43.503 57.1792 44.9308 50.5525 46.7256 44.1365H27.0997C26.2966 47.1828 25.4765 50.2249 24.6397 53.2621H32.7486C31.55 58.306 30.3237 63.3431 29.0697 68.3733C28.1848 71.9804 26.9463 75.8387 26.9054 79.5403C26.8304 86.319 30.1772 89.536 36.6628 90.0065C43.5325 89.9735 47.1132 86.7748 50.9432 81.3966C50.4315 83.9621 49.6494 86.7295 49.0309 89.2955H60.5835L65.3047 70.3685C66.5287 65.4496 67.4252 59.2036 70.7883 55.2756C73.4558 52.1602 79.8476 51.5251 82.1391 55.4309C83.5863 57.8457 82.8912 61.1684 82.1936 63.7021L80.1504 70.9503C78.832 75.6266 77.1177 80.7787 79.6323 85.4088C82.3769 90.4627 90.2291 91.0853 94.7995 88.4552C99.0237 86.0243 101.1 81.1454 102.48 76.6984C100.971 76.0829 99.4525 75.4921 97.9243 74.9263C96.9745 77.3114 95.7654 80.9866 93.2368 82.1002C92.5809 82.3891 91.7944 82.4251 91.1263 82.1494C90.6356 81.947 90.3132 81.5569 90.12 81.0715C87.9383 75.5873 98.5493 60.1533 93.1942 49.4296C92.0781 47.1413 90.197 45.3154 87.8766 44.268ZM48.8637 29.4046C48.0496 25.6523 44.3541 23.2648 40.5988 24.0652C36.8243 24.8698 34.422 28.5882 35.2402 32.3599C36.0583 36.1315 39.7854 38.5205 43.554 37.6887C47.3036 36.8612 49.6777 33.1571 48.8637 29.4046Z" fill="#FFFEFE"/>
<path d="M274.3 42.2688C288.138 40.6827 300.634 50.6317 302.19 64.4724C303.744 78.3133 293.767 90.7873 279.923 92.3114C266.122 93.8307 253.697 83.8922 252.147 70.0952C250.597 56.2981 260.506 43.85 274.3 42.2688ZM277.856 80.8387C280.251 80.6239 282.297 80.0528 284.263 78.6041C290.863 73.7426 290.947 61.4333 284.681 56.2821C282.744 54.6894 279.383 53.471 276.869 53.7201C273.5 53.927 270.605 54.9613 268.337 57.5662C263.666 62.9276 263.91 73.2586 269.361 78.0265C271.792 80.1526 274.706 80.9039 277.856 80.8387Z" fill="#FFFEFE"/>
<path d="M331.628 42.4373C336.391 41.6005 343.064 43.3813 346.52 46.9252C352.706 53.2688 351.616 62.4698 351.616 70.6825L351.614 91.1745H338.648L338.656 71.0594C338.656 67.5626 338.746 64.1043 338.493 60.615C337.947 53.1035 329.511 51.6426 324.238 55.4239C323.982 55.6548 323.732 55.8914 323.488 56.1339C319.976 59.645 320.834 66.8045 320.833 71.4752L320.84 91.1745H307.875V43.3989H319.847V49.1519C322.449 44.6729 326.717 43.0548 331.628 42.4373Z" fill="#FFFEFE"/>
<path d="M204.747 42.4389C204.817 42.4284 204.887 42.4177 204.956 42.4071C216.424 41.4857 225.746 46.7406 226.844 58.4351H214.36C214.134 56.8818 213.701 55.8507 212.596 54.6909C210.174 52.1503 204.203 51.9819 201.749 54.5697C200.997 55.3539 200.597 56.4101 200.641 57.4953C200.671 58.291 201.174 59.408 201.866 59.7805C206.544 62.2973 212.327 61.9893 217.388 63.7708C223.366 65.6853 226.847 69.7338 227.013 76.1827C227.299 87.36 217.489 91.8955 207.769 92.2377C196.049 92.328 187.168 88.4661 186.135 75.6539H199.239C199.489 77.5216 199.878 78.64 201.604 80.2102C204.611 82.9442 214.965 82.543 214.672 77.1405C214.503 74.0317 208.004 73.0791 205.131 72.6202C197.737 71.4399 189.109 69.1449 188.259 60.2251C187.17 49.5556 194.898 43.5663 204.747 42.4389Z" fill="#FFFEFE"/>
<path d="M233.557 43.3989H246.476V91.1745H233.557V43.3989Z" fill="#FFFEFE"/>
<path d="M166.926 43.3989H179.842V91.1745H166.926V43.3989Z" fill="#FFFEFE"/>
</svg>
